<svg width="306" height="36" viewBox="0 0 306 36" fill="none" xmlns="http://www.w3.org/2000/svg">
<path d="M10 27V15.012L10.972 17.784L0.064 1.62H5.428L12.916 13.14H11.908L19.396 1.62H24.58L13.708 17.784L14.644 15.012V27H10ZM31.3083 27.36C29.4363 27.36 27.8163 26.976 26.4483 26.208C25.0803 25.44 24.0123 24.348 23.2443 22.932C22.5003 21.516 22.1283 19.836 22.1283 17.892C22.1283 15.948 22.5003 14.28 23.2443 12.888C24.0123 11.472 25.0803 10.38 26.4483 9.612C27.8163 8.844 29.4363 8.46 31.3083 8.46C33.1803 8.46 34.8003 8.844 36.1683 9.612C37.5603 10.38 38.6283 11.472 39.3723 12.888C40.1403 14.28 40.5243 15.948 40.5243 17.892C40.5243 19.836 40.1403 21.516 39.3723 22.932C38.6283 24.348 37.5603 25.44 36.1683 26.208C34.8003 26.976 33.1803 27.36 31.3083 27.36ZM31.3083 23.904C32.7243 23.904 33.8523 23.412 34.6923 22.428C35.5323 21.42 35.9523 19.908 35.9523 17.892C35.9523 15.876 35.5323 14.376 34.6923 13.392C33.8523 12.408 32.7243 11.916 31.3083 11.916C29.8923 11.916 28.7643 12.408 27.9243 13.392C27.0843 14.376 26.6643 15.876 26.6643 17.892C26.6643 19.908 27.0843 21.42 27.9243 22.428C28.7643 23.412 29.8923 23.904 31.3083 23.904ZM50.957 27.36C48.725 27.36 47.057 26.748 45.953 25.524C44.849 24.3 44.297 22.428 44.297 19.908V8.82H48.797V19.872C48.797 21.216 49.073 22.212 49.625 22.86C50.177 23.484 51.017 23.796 52.145 23.796C53.417 23.796 54.449 23.364 55.241 22.5C56.057 21.636 56.465 20.496 56.465 19.08V8.82H60.965V27H56.573V23.292H57.077C56.549 24.588 55.745 25.596 54.665 26.316C53.609 27.012 52.373 27.36 50.957 27.36ZM67.5783 11.376L65.7423 9.936C66.5103 9.144 67.0383 8.412 67.3263 7.74C67.6383 7.044 67.7943 6.324 67.7943 5.58L68.9103 6.588H65.3823V1.62H70.4223V4.896C70.4223 6.12 70.2063 7.248 69.7743 8.28C69.3663 9.288 68.6343 10.32 67.5783 11.376ZM80.4596 27L72.6116 8.82H77.3996L83.0876 23.04H81.9716L87.8036 8.82H92.3036L84.4196 27H80.4596ZM103.146 27.36C100.098 27.36 97.7101 26.52 95.9821 24.84C94.2541 23.16 93.3901 20.856 93.3901 17.928C93.3901 16.032 93.7621 14.376 94.5061 12.96C95.2501 11.544 96.2821 10.44 97.6021 9.648C98.9461 8.856 100.506 8.46 102.282 8.46C104.034 8.46 105.498 8.832 106.674 9.576C107.85 10.32 108.738 11.364 109.338 12.708C109.962 14.052 110.274 15.624 110.274 17.424V18.612H97.0261V16.236H107.07L106.458 16.74C106.458 15.06 106.098 13.776 105.378 12.888C104.682 12 103.662 11.556 102.318 11.556C100.83 11.556 99.6781 12.084 98.8621 13.14C98.0701 14.196 97.6741 15.672 97.6741 17.568V18.036C97.6741 20.004 98.1541 21.48 99.1141 22.464C100.098 23.424 101.478 23.904 103.254 23.904C104.286 23.904 105.246 23.772 106.134 23.508C107.046 23.22 107.91 22.764 108.726 22.14L110.058 25.164C109.194 25.86 108.162 26.4 106.962 26.784C105.762 27.168 104.49 27.36 103.146 27.36ZM132.388 35.064C130.708 35.064 129.184 34.884 127.816 34.524C126.472 34.164 125.272 33.612 124.216 32.868L125.188 29.628C125.884 30.084 126.604 30.456 127.348 30.744C128.092 31.032 128.86 31.248 129.652 31.392C130.444 31.536 131.248 31.608 132.064 31.608C133.744 31.608 134.992 31.188 135.808 30.348C136.648 29.532 137.068 28.356 137.068 26.82V22.464H137.428C137.044 23.712 136.264 24.708 135.088 25.452C133.936 26.196 132.604 26.568 131.092 26.568C129.46 26.568 128.032 26.208 126.808 25.488C125.608 24.744 124.672 23.688 124 22.32C123.328 20.952 122.992 19.344 122.992 17.496C122.992 15.648 123.328 14.052 124 12.708C124.672 11.34 125.608 10.296 126.808 9.576C128.032 8.832 129.46 8.46 131.092 8.46C132.628 8.46 133.96 8.832 135.088 9.576C136.24 10.296 137.008 11.28 137.392 12.528L137.068 12.312L137.428 8.82H141.784C141.688 9.564 141.616 10.32 141.568 11.088C141.52 11.856 141.496 12.612 141.496 13.356V26.28C141.496 29.136 140.716 31.308 139.156 32.796C137.62 34.308 135.364 35.064 132.388 35.064ZM132.316 23.112C133.756 23.112 134.896 22.632 135.736 21.672C136.6 20.688 137.032 19.296 137.032 17.496C137.032 15.696 136.6 14.316 135.736 13.356C134.896 12.396 133.756 11.916 132.316 11.916C130.852 11.916 129.688 12.396 128.824 13.356C127.96 14.316 127.528 15.696 127.528 17.496C127.528 19.296 127.96 20.688 128.824 21.672C129.688 22.632 130.852 23.112 132.316 23.112ZM154.566 27.36C152.694 27.36 151.074 26.976 149.706 26.208C148.338 25.44 147.27 24.348 146.502 22.932C145.758 21.516 145.386 19.836 145.386 17.892C145.386 15.948 145.758 14.28 146.502 12.888C147.27 11.472 148.338 10.38 149.706 9.612C151.074 8.844 152.694 8.46 154.566 8.46C156.438 8.46 158.058 8.844 159.426 9.612C160.818 10.38 161.886 11.472 162.63 12.888C163.398 14.28 163.782 15.948 163.782 17.892C163.782 19.836 163.398 21.516 162.63 22.932C161.886 24.348 160.818 25.44 159.426 26.208C158.058 26.976 156.438 27.36 154.566 27.36ZM154.566 23.904C155.982 23.904 157.11 23.412 157.95 22.428C158.79 21.42 159.21 19.908 159.21 17.892C159.21 15.876 158.79 14.376 157.95 13.392C157.11 12.408 155.982 11.916 154.566 11.916C153.15 11.916 152.022 12.408 151.182 13.392C150.342 14.376 149.922 15.876 149.922 17.892C149.922 19.908 150.342 21.42 151.182 22.428C152.022 23.412 153.15 23.904 154.566 23.904ZM175.263 27.36C173.103 27.36 171.471 26.796 170.367 25.668C169.263 24.54 168.711 22.848 168.711 20.592V12.204H165.219V8.82H168.711V4.176L173.211 3.024V8.82H178.071V12.204H173.211V20.304C173.211 21.552 173.451 22.428 173.931 22.932C174.411 23.436 175.071 23.688 175.911 23.688C176.367 23.688 176.751 23.652 177.063 23.58C177.399 23.508 177.723 23.412 178.035 23.292V26.856C177.627 27.024 177.171 27.144 176.667 27.216C176.187 27.312 175.719 27.36 175.263 27.36Z" fill="#FEFEFE"/>
<path d="M191.655 27L203.967 3.888V5.508H190.503V1.62H208.251V5.076L196.731 27H191.655ZM232.875 27.36C231.339 27.36 229.995 26.988 228.843 26.244C227.691 25.476 226.923 24.444 226.539 23.148H226.935V27H222.471V0.503998H226.971V12.528H226.539C226.947 11.28 227.727 10.296 228.879 9.576C230.031 8.832 231.363 8.46 232.875 8.46C234.483 8.46 235.887 8.844 237.087 9.612C238.287 10.38 239.223 11.472 239.895 12.888C240.567 14.28 240.903 15.96 240.903 17.928C240.903 19.896 240.567 21.588 239.895 23.004C239.223 24.396 238.275 25.476 237.051 26.244C235.851 26.988 234.459 27.36 232.875 27.36ZM231.615 23.904C233.031 23.904 234.171 23.412 235.035 22.428C235.923 21.444 236.367 19.944 236.367 17.928C236.367 15.912 235.923 14.412 235.035 13.428C234.171 12.42 233.031 11.916 231.615 11.916C230.199 11.916 229.059 12.408 228.195 13.392C227.331 14.376 226.899 15.876 226.899 17.892C226.899 19.908 227.331 21.42 228.195 22.428C229.059 23.412 230.199 23.904 231.615 23.904ZM253.004 27.36C251.132 27.36 249.512 26.976 248.144 26.208C246.776 25.44 245.708 24.348 244.94 22.932C244.196 21.516 243.824 19.836 243.824 17.892C243.824 15.948 244.196 14.28 244.94 12.888C245.708 11.472 246.776 10.38 248.144 9.612C249.512 8.844 251.132 8.46 253.004 8.46C254.876 8.46 256.496 8.844 257.864 9.612C259.256 10.38 260.324 11.472 261.068 12.888C261.836 14.28 262.22 15.948 262.22 17.892C262.22 19.836 261.836 21.516 261.068 22.932C260.324 24.348 259.256 25.44 257.864 26.208C256.496 26.976 254.876 27.36 253.004 27.36ZM253.004 23.904C254.42 23.904 255.548 23.412 256.388 22.428C257.228 21.42 257.648 19.908 257.648 17.892C257.648 15.876 257.228 14.376 256.388 13.392C255.548 12.408 254.42 11.916 253.004 11.916C251.588 11.916 250.46 12.408 249.62 13.392C248.78 14.376 248.36 15.876 248.36 17.892C248.36 19.908 248.78 21.42 249.62 22.428C250.46 23.412 251.588 23.904 253.004 23.904ZM274.308 27.36C272.436 27.36 270.816 26.976 269.448 26.208C268.08 25.44 267.012 24.348 266.244 22.932C265.5 21.516 265.128 19.836 265.128 17.892C265.128 15.948 265.5 14.28 266.244 12.888C267.012 11.472 268.08 10.38 269.448 9.612C270.816 8.844 272.436 8.46 274.308 8.46C276.18 8.46 277.8 8.844 279.168 9.612C280.56 10.38 281.628 11.472 282.372 12.888C283.14 14.28 283.524 15.948 283.524 17.892C283.524 19.836 283.14 21.516 282.372 22.932C281.628 24.348 280.56 25.44 279.168 26.208C277.8 26.976 276.18 27.36 274.308 27.36ZM274.308 23.904C275.724 23.904 276.852 23.412 277.692 22.428C278.532 21.42 278.952 19.908 278.952 17.892C278.952 15.876 278.532 14.376 277.692 13.392C276.852 12.408 275.724 11.916 274.308 11.916C272.892 11.916 271.764 12.408 270.924 13.392C270.084 14.376 269.664 15.876 269.664 17.892C269.664 19.908 270.084 21.42 270.924 22.428C271.764 23.412 272.892 23.904 274.308 23.904ZM287.405 27V0.503998H291.905V16.56H291.977L299.357 8.82H304.793L295.613 18.432L295.649 16.632L305.441 27H299.861L291.977 18.864H291.905V27H287.405Z" fill="#6200EE"/>
</svg>
